<svg xmlns="http://www.w3.org/2000/svg" viewBox="0 0 120 120" fill="none">
  <defs>
    <linearGradient id="bg" x1="10" y1="8" x2="110" y2="112" gradientUnits="userSpaceOnUse">
      <stop stop-color="#8B84FF"/>
      <stop offset="0.5" stop-color="#6C63FF"/>
      <stop offset="1" stop-color="#5249E0"/>
    </linearGradient>
    <linearGradient id="body" x1="32" y1="34" x2="88" y2="90" gradientUnits="userSpaceOnUse">
      <stop stop-color="#7A72FF"/>
      <stop offset="1" stop-color="#4F46E5"/>
    </linearGradient>
    <linearGradient id="horn" x1="0" y1="0" x2="0" y2="1">
      <stop stop-color="#FFD54F"/>
      <stop offset="1" stop-color="#FFB703"/>
    </linearGradient>
  </defs>
  <rect width="120" height="120" rx="28" fill="url(#bg)"/>
  <rect x="4" y="4" width="112" height="112" rx="24" stroke="white" stroke-opacity="0.12" stroke-width="1.5"/>
  <ellipse cx="60" cy="32" rx="38" ry="18" fill="white" fill-opacity="0.1"/>
  <path d="M38 46 L32 24 L46 40 Z" fill="url(#horn)" stroke="#E6A200" stroke-width="1" stroke-linejoin="round"/>
  <path d="M82 46 L88 24 L74 40 Z" fill="url(#horn)" stroke="#E6A200" stroke-width="1" stroke-linejoin="round"/>
  <circle cx="60" cy="64" r="30" fill="url(#body)"/>
  <circle cx="38" cy="70" r="5" fill="#22C55E" fill-opacity="0.35"/>
  <circle cx="82" cy="70" r="5" fill="#22C55E" fill-opacity="0.35"/>
  <ellipse cx="48" cy="60" rx="9" ry="10" fill="white"/>
  <ellipse cx="72" cy="60" rx="9" ry="10" fill="white"/>
  <circle cx="49" cy="61" r="5" fill="#0F172A"/>
  <circle cx="73" cy="61" r="5" fill="#0F172A"/>
  <circle cx="51" cy="58" r="2" fill="white"/>
  <circle cx="75" cy="58" r="2" fill="white"/>
  <path d="M46 76 Q60 86 74 76" stroke="#22C55E" stroke-width="3.5" stroke-linecap="round" fill="none"/>
  <circle cx="30" cy="100" r="5" fill="#22C55E" fill-opacity="0.9"/>
  <circle cx="60" cy="100" r="5" fill="#FFB703" fill-opacity="0.95"/>
  <circle cx="90" cy="100" r="5" fill="#22C55E" fill-opacity="0.9"/>
  <rect x="22" y="98" width="76" height="4" rx="2" fill="white" fill-opacity="0.08"/>
</svg>